
<svg width="186" height="185" viewBox="0 0 186 185" fill="none" xmlns="http://www.w3.org/2000/svg">
<rect width="186" height="185" fill="none"/>
<path d="M181 92.5C181 140.8 141.627 180 93 180C44.3735 180 5 140.8 5 92.5C5 44.2005 44.3735 5 93 5C141.627 5 181 44.2005 181 92.5Z" fill="#1F1C1C" stroke="#4A4A46" stroke-width="10"/>
<path d="M131.669 105.611L85.5115 131.928C81.2264 134.371 78.2317 136.075 75.8752 137.215C73.4992 138.364 72.2842 138.676 71.5366 138.723C67.5697 138.973 63.8314 136.849 62.0142 133.314C61.6717 132.648 61.3168 131.445 61.0871 128.816C60.8592 126.208 60.7892 122.763 60.6927 117.831L59.6994 67.0223C59.603 62.0906 59.5384 58.6456 59.6641 56.0308C59.7909 53.3944 60.0985 52.1785 60.4147 51.4993C62.0924 47.896 65.7448 45.6282 69.7184 45.7229C70.4673 45.7407 71.6936 46.0043 74.1127 47.06C76.512 48.107 79.5709 49.6929 83.9483 51.9667L131.099 76.4591C135.815 78.9087 139.124 80.6308 141.533 82.0967C143.977 83.5842 144.945 84.494 145.385 85.1104C147.783 88.4698 147.871 92.9574 145.606 96.4079C145.19 97.0411 144.259 97.988 141.875 99.5699C139.525 101.129 136.286 102.979 131.669 105.611Z" fill="#EDD714" stroke="#4A4A46" stroke-width="10"/>
<path d="M111.789 28.9855C124.258 30.3915 137.205 37.7918 143.019 47.5412" stroke="#4A4A46" stroke-width="4"/>
</svg>